<svg xmlns="http://www.w3.org/2000/svg" xmlns:xlink="http://www.w3.org/1999/xlink" width="1138" zoomAndPan="magnify" viewBox="0 0 853.5 728.249982" height="971" preserveAspectRatio="xMidYMid meet" version="1.0"><defs><clipPath id="id1"><path d="M 0.1875 0 L 852.8125 0 L 852.8125 727.5 L 0.1875 727.5 Z M 0.1875 0 " clip-rule="nonzero"/></clipPath></defs><g clip-path="url(#id1)"><path fill="rgb(100%, 100%, 100%)" d="M 0.1875 0 L 853.3125 0 L 853.3125 734.675781 L 0.1875 734.675781 Z M 0.1875 0 " fill-opacity="1" fill-rule="nonzero"/><path fill="rgb(100%, 100%, 100%)" d="M 0.1875 0 L 853.3125 0 L 853.3125 727.925781 L 0.1875 727.925781 Z M 0.1875 0 " fill-opacity="1" fill-rule="nonzero"/><path fill="rgb(100%, 100%, 100%)" d="M 0.1875 0 L 853.3125 0 L 853.3125 727.925781 L 0.1875 727.925781 Z M 0.1875 0 " fill-opacity="1" fill-rule="nonzero"/><path fill="rgb(100%, 100%, 100%)" d="M 0.1875 0 L 853.3125 0 L 853.3125 727.925781 L 0.1875 727.925781 Z M 0.1875 0 " fill-opacity="1" fill-rule="nonzero"/></g><path fill="rgb(50.979614%, 39.608765%, 28.62854%)" d="M 325.710938 504.644531 C 282.398438 496.347656 249.074219 473.792969 231.828125 441.128906 C 213.285156 405.871094 213.933594 362.835938 214.582031 324.984375 L 214.710938 319.28125 C 214.839844 312.800781 214.839844 306.1875 214.839844 299.578125 C 214.96875 262.636719 215.097656 224.527344 226.121094 189.398438 C 239.089844 148.4375 272.804688 124.84375 318.578125 124.84375 C 320.265625 124.84375 321.949219 124.84375 323.636719 124.976562 L 326.230469 125.105469 L 326.617188 174.492188 L 323.636719 174.230469 C 322.078125 174.101562 320.523438 174.101562 319.097656 174.101562 C 306.257812 174.101562 296.402344 177.992188 288.625 186.027344 C 266.96875 208.453125 268.523438 257.191406 269.691406 292.707031 C 269.949219 298.800781 270.082031 304.503906 270.082031 309.558594 C 270.082031 314.613281 270.082031 319.929688 270.082031 325.375 C 269.820312 376.1875 269.433594 439.441406 326.488281 449.550781 L 328.691406 449.941406 L 328.691406 452.273438 C 328.824219 468.867188 328.953125 485.457031 329.082031 501.921875 L 329.082031 505.289062 Z M 263.078125 448.644531 C 261.652344 448.773438 260.226562 449.683594 260.226562 451.367188 L 260.226562 452.40625 C 260.226562 453.441406 260.226562 454.476562 260.355469 455.515625 C 260.484375 456.8125 261.132812 458.886719 262.949219 458.886719 C 264.894531 458.886719 265.542969 456.8125 265.671875 455.515625 C 265.800781 454.476562 265.671875 453.570312 265.671875 452.535156 L 265.671875 451.496094 C 265.671875 450.847656 265.410156 450.070312 264.765625 449.550781 C 264.375 448.90625 263.726562 448.644531 263.078125 448.644531 L 263.207031 445.921875 Z M 279.289062 436.589844 C 277.992188 436.589844 276.5625 437.628906 276.5625 439.183594 L 276.5625 440.347656 C 276.5625 443.71875 276.695312 445.664062 278.507812 446.960938 C 278.640625 447.089844 278.898438 447.089844 279.289062 447.089844 C 279.675781 447.089844 279.933594 446.960938 280.066406 446.960938 C 281.878906 445.792969 282.011719 443.71875 282.011719 440.347656 L 282.011719 439.3125 C 282.011719 438.664062 281.75 438.015625 281.230469 437.496094 C 280.582031 436.847656 279.933594 436.589844 279.289062 436.589844 L 279.417969 433.867188 Z M 256.335938 421.554688 C 255.039062 421.554688 253.480469 422.589844 253.480469 424.277344 L 253.480469 426.21875 C 253.480469 428.292969 253.480469 430.238281 253.613281 432.3125 C 253.742188 433.609375 254.648438 435.164062 256.074219 435.164062 C 257.761719 435.035156 258.796875 433.996094 258.929688 432.3125 C 259.058594 430.367188 259.058594 428.425781 259.058594 426.21875 L 259.058594 424.277344 C 258.929688 422.980469 257.632812 421.554688 256.335938 421.554688 L 256.464844 418.832031 Z M 252.316406 199.898438 C 250.5 199.898438 249.851562 201.453125 249.59375 202.101562 C 249.460938 202.488281 249.332031 202.878906 249.074219 203.265625 C 248.554688 204.691406 248.035156 205.988281 248.035156 207.15625 C 248.035156 207.804688 248.296875 208.972656 249.59375 209.488281 C 249.980469 209.617188 250.242188 209.75 250.628906 209.75 C 251.277344 209.75 251.925781 209.488281 252.183594 209.101562 C 253.222656 207.933594 253.871094 206.25 254.519531 204.433594 L 255.039062 203.136719 C 255.167969 202.75 255.039062 201.972656 254.777344 201.324219 C 254.390625 200.675781 253.742188 200.15625 253.222656 200.027344 C 252.832031 200.027344 252.574219 199.898438 252.316406 199.898438 Z M 249.460938 173.714844 C 249.074219 173.714844 247.777344 173.84375 247.386719 174.75 C 247.128906 175.269531 246.867188 175.789062 246.609375 176.304688 C 245.960938 177.601562 245.3125 179.027344 244.921875 180.195312 C 244.664062 181.492188 245.183594 182.785156 246.480469 183.304688 C 246.867188 183.433594 247.128906 183.566406 247.515625 183.566406 C 248.683594 183.566406 249.460938 182.65625 249.851562 182.140625 C 250.371094 181.359375 250.757812 180.453125 251.277344 179.285156 C 251.535156 178.769531 251.667969 178.378906 251.925781 177.859375 C 252.445312 176.695312 252.703125 174.75 251.148438 173.972656 C 250.628906 173.84375 249.980469 173.714844 249.460938 173.714844 Z M 273.710938 162.304688 C 273.0625 162.304688 272.15625 162.566406 271.894531 163.085938 C 271.636719 163.730469 271.378906 164.25 271.117188 164.898438 C 270.082031 167.101562 269.171875 169.175781 268.785156 171.25 C 268.523438 173.066406 269.300781 173.453125 269.5625 173.582031 C 269.820312 173.714844 270.082031 173.84375 270.597656 173.84375 C 271.117188 173.84375 271.507812 173.714844 271.636719 173.582031 C 272.671875 172.289062 273.453125 171.378906 273.96875 170.082031 C 274.359375 169.175781 275.785156 166.066406 275.785156 166.066406 C 276.175781 165.15625 276.5625 163.34375 275.136719 162.566406 C 274.75 162.4375 274.230469 162.304688 273.710938 162.304688 Z M 273.710938 162.304688 " fill-opacity="1" fill-rule="nonzero"/><path fill="rgb(92.158508%, 89.7995%, 86.669922%)" d="M 639.128906 124.84375 L 639.128906 113.957031 M 639.128906 113.957031 C 637.964844 113.699219 636.539062 113.308594 635.109375 112.917969 C 596.988281 102.9375 545.375 93.476562 484.171875 93.347656 C 422.058594 93.21875 369.929688 102.808594 331.414062 112.917969 C 329.988281 113.308594 328.691406 113.566406 327.265625 113.957031 L 331.15625 614.175781 C 331.15625 623.507812 335.824219 632.0625 343.476562 637.378906 C 368.761719 654.875 421.796875 684.429688 493.378906 682.097656 C 546.671875 680.28125 588.167969 661.617188 614.234375 645.804688 C 629.792969 636.339844 639.128906 619.230469 639.128906 601.082031 L 639.128906 124.84375 " fill-opacity="1" fill-rule="nonzero"/><path fill="rgb(81.959534%, 73.329163%, 65.098572%)" d="M 629.144531 121.34375 C 633.164062 120.4375 634.851562 126.53125 630.832031 127.566406 C 583.242188 140.789062 535.003906 148.824219 485.46875 150.382812 C 460.699219 151.160156 435.804688 150.382812 411.164062 148.175781 C 387.695312 146.101562 361.109375 144.808594 339.066406 136.382812 C 334.917969 134.824219 335.175781 128.214844 340.105469 128.34375 C 363.835938 128.992188 387.5625 135.214844 411.164062 137.417969 C 435.023438 139.621094 459.015625 140.269531 483.003906 139.75 C 532.019531 138.714844 581.296875 132.753906 629.144531 121.34375 Z M 585.316406 211.691406 C 586.484375 243.710938 588.296875 275.726562 589.726562 307.875 C 591.023438 338.207031 588.6875 370.222656 593.097656 400.035156 C 594.003906 405.871094 601.785156 403.535156 602.433594 398.738281 C 606.195312 368.539062 601.914062 335.484375 600.488281 305.152344 C 599.0625 273.914062 596.726562 242.800781 592.707031 211.691406 C 592.058594 207.15625 585.058594 206.898438 585.316406 211.691406 Z M 590.890625 438.664062 C 590.632812 441.257812 590.375 443.71875 590.242188 446.3125 C 589.984375 448.90625 589.59375 451.625 590.375 454.21875 C 591.539062 457.847656 597.636719 459.664062 599.582031 455.386719 C 601.785156 450.460938 601.007812 444.109375 601.007812 438.792969 C 601.265625 432.054688 591.539062 432.183594 590.890625 438.664062 Z M 398.976562 253.691406 C 399.105469 261.46875 406.496094 267.949219 414.277344 265.488281 C 421.148438 263.285156 427.894531 250.710938 418.6875 247.210938 C 417.128906 246.691406 415.183594 247.339844 414.148438 248.375 C 412.460938 250.191406 412.851562 251.617188 412.332031 253.820312 C 412.203125 254.210938 411.941406 254.859375 411.554688 255.117188 C 410.386719 256.023438 407.921875 255.246094 407.664062 253.5625 C 407.015625 248.375 398.976562 248.117188 398.976562 253.691406 Z M 514.125 196.007812 C 513.996094 197.175781 513.996094 196.398438 514.644531 197.695312 C 514.902344 198.339844 515.035156 199.25 515.035156 200.15625 C 514.902344 202.359375 514.773438 203.785156 515.8125 205.730469 C 516.976562 207.804688 520.21875 208.839844 522.296875 207.414062 C 528.777344 202.878906 525.925781 191.730469 519.570312 188.230469 C 513.347656 184.859375 505.308594 188.75 505.046875 196.007812 C 504.917969 198.472656 507.253906 200.546875 509.585938 200.546875 C 512.308594 200.546875 513.867188 198.339844 514.125 196.007812 Z M 468.738281 348.316406 C 466.792969 354.925781 472.761719 361.019531 479.375 360.113281 C 485.726562 359.335938 490.394531 353.242188 491.433594 347.148438 C 491.820312 344.558594 491.042969 341.964844 488.320312 340.929688 C 485.988281 340.019531 482.875 340.667969 481.707031 343.132812 C 480.800781 345.074219 480.410156 347.667969 478.726562 349.09375 C 477.429688 350.390625 478.335938 348.964844 478.078125 350.910156 C 479.113281 344.816406 470.554688 342.222656 468.738281 348.316406 Z M 382.246094 452.792969 C 379.523438 454.996094 378.875 458.886719 379.914062 462.125 C 381.082031 465.753906 384.324219 468.089844 387.953125 468.605469 C 391.714844 469.125 395.472656 467.570312 398.066406 464.976562 C 400.792969 462.253906 403.773438 457.589844 401.441406 453.699219 C 400.273438 451.757812 398.199219 451.109375 395.992188 451.496094 C 393.789062 451.886719 392.621094 453.441406 391.585938 455.386719 C 391.066406 456.292969 390.546875 457.199219 389.769531 457.71875 C 390.027344 457.589844 388.992188 458.238281 389.25 457.976562 C 388.859375 458.238281 388.601562 457.71875 388.730469 457.976562 C 388.730469 458.109375 389.640625 459.273438 389.378906 458.625 C 389.121094 457.976562 389.640625 459.273438 389.121094 459.792969 C 391.066406 457.976562 390.9375 454.738281 389.121094 452.792969 C 387.175781 450.847656 384.324219 451.109375 382.246094 452.792969 Z M 510.105469 498.9375 C 504.789062 504.253906 509.328125 513.328125 516.460938 513.585938 C 520.089844 513.714844 523.460938 511.773438 525.796875 509.050781 C 528.261719 506.070312 530.464844 501.660156 528.390625 497.902344 C 527.480469 496.21875 525.148438 495.179688 523.203125 495.828125 C 521.257812 496.605469 520.089844 497.644531 519.054688 499.457031 C 518.40625 500.496094 518.015625 501.921875 516.976562 502.699219 C 516.460938 503.21875 517.238281 502.699219 516.589844 502.957031 C 516.199219 503.085938 516.199219 503.085938 516.460938 503.085938 C 515.683594 503.085938 515.683594 503.085938 516.328125 503.21875 C 516.328125 503.21875 517.367188 504.125 516.976562 503.605469 C 516.71875 503.085938 516.71875 503.347656 517.109375 504.382812 C 516.976562 504.773438 516.847656 505.160156 516.589844 505.421875 C 518.144531 503.476562 518.40625 500.882812 516.589844 499.070312 C 514.773438 497.253906 511.792969 497.125 510.105469 498.9375 Z M 441.378906 105.53125 C 440.601562 106.828125 439.953125 107.992188 439.433594 109.417969 C 438.527344 111.625 440.210938 114.214844 442.15625 114.992188 C 444.492188 116.03125 446.695312 114.992188 448.121094 113.050781 C 448.769531 112.273438 449.160156 111.234375 449.679688 110.328125 C 450.976562 108.125 450.195312 105.011719 447.992188 103.714844 C 445.789062 102.679688 442.675781 103.199219 441.378906 105.53125 Z M 461.21875 103.457031 C 459.792969 106.308594 458.238281 109.160156 459.921875 112.273438 C 461.089844 114.34375 463.292969 114.863281 465.367188 114.476562 C 468.222656 114.085938 469.519531 111.234375 470.554688 108.902344 C 471.851562 106.308594 471.332031 102.808594 468.609375 101.382812 C 466.144531 100.085938 462.515625 100.734375 461.21875 103.457031 Z M 488.191406 103.457031 C 487.023438 105.140625 485.855469 106.828125 484.558594 108.382812 C 482.875 110.714844 484.042969 114.605469 486.503906 115.902344 C 489.359375 117.457031 492.210938 116.417969 494.027344 113.957031 C 495.191406 112.273438 496.488281 110.714844 497.65625 109.03125 C 499.34375 106.699219 498.175781 102.808594 495.710938 101.511719 C 492.859375 99.957031 490.007812 100.863281 488.191406 103.457031 Z M 380.691406 625.191406 C 379.136719 627.65625 377.0625 630.117188 376.929688 633.101562 C 376.800781 637.117188 381.339844 639.191406 384.582031 637.507812 C 387.046875 636.210938 388.601562 632.96875 390.027344 630.636719 C 391.585938 628.304688 390.546875 624.675781 388.082031 623.378906 C 385.359375 621.953125 382.246094 622.730469 380.691406 625.191406 Z M 400.144531 628.691406 C 399.625 629.730469 399.105469 630.765625 398.585938 631.804688 C 397.9375 633.101562 397.160156 634.394531 396.902344 635.691406 C 396.511719 637.894531 397.160156 640.488281 399.363281 641.65625 C 401.441406 642.691406 404.164062 642.5625 405.847656 640.878906 C 407.535156 639.0625 408.570312 636.46875 409.609375 634.265625 C 410.90625 631.675781 410.386719 628.175781 407.664062 626.75 C 405.070312 625.453125 401.441406 625.96875 400.144531 628.691406 Z M 418.039062 635.175781 C 418.167969 634.007812 417.777344 636.082031 417.777344 636.210938 C 417.648438 636.730469 417.519531 637.246094 417.257812 637.636719 C 416.742188 639.0625 417.777344 636.859375 417 638.285156 C 416.609375 639.191406 416.09375 640.097656 415.832031 641.007812 C 415.054688 643.082031 416.351562 646.0625 418.296875 647.097656 C 420.242188 648.136719 423.222656 648.136719 424.78125 646.320312 C 426.984375 643.597656 428.28125 640.101562 428.800781 636.601562 C 429.191406 633.359375 427.894531 630.25 424.261719 629.730469 C 420.632812 629.339844 418.425781 631.933594 418.039062 635.175781 Z M 418.039062 635.175781 " fill-opacity="1" fill-rule="nonzero"/><path fill="rgb(50.979614%, 39.608765%, 28.62854%)" d="M 620.199219 584.101562 C 618.253906 583.582031 615.53125 584.75 615.140625 586.953125 C 614.492188 590.582031 613.714844 594.210938 613.066406 597.84375 C 612.675781 600.046875 613.714844 602.25 615.917969 602.898438 C 617.863281 603.417969 620.585938 602.25 620.976562 600.046875 C 621.625 596.417969 622.273438 592.785156 623.050781 589.15625 C 623.570312 587.082031 622.53125 584.75 620.199219 584.101562 Z M 607.359375 589.546875 C 605.285156 589.027344 602.691406 590.195312 602.304688 592.398438 C 601.65625 595.769531 601.007812 599.136719 600.230469 602.507812 C 599.839844 604.710938 600.878906 606.914062 603.082031 607.5625 C 605.15625 608.082031 607.75 606.914062 608.140625 604.710938 C 608.789062 601.34375 609.433594 597.972656 610.082031 594.601562 C 610.730469 592.398438 609.695312 590.195312 607.359375 589.546875 Z M 586.613281 598.878906 C 584.148438 599.007812 582.722656 600.695312 582.464844 603.027344 C 582.203125 605.230469 582.074219 607.5625 581.816406 609.769531 C 581.554688 611.972656 583.890625 614.046875 585.964844 613.914062 C 588.429688 613.785156 589.855469 612.101562 590.113281 609.769531 L 590.761719 603.027344 C 591.023438 600.824219 588.6875 598.75 586.613281 598.878906 Z M 620.199219 584.101562 C 618.253906 583.582031 615.53125 584.75 615.140625 586.953125 C 614.492188 590.582031 613.714844 594.210938 613.066406 597.84375 C 612.675781 600.046875 613.714844 602.25 615.917969 602.898438 C 617.863281 603.417969 620.585938 602.25 620.976562 600.046875 C 621.625 596.417969 622.273438 592.785156 623.050781 589.15625 C 623.570312 587.082031 622.53125 584.75 620.199219 584.101562 Z M 607.359375 589.546875 C 605.285156 589.027344 602.691406 590.195312 602.304688 592.398438 C 601.65625 595.769531 601.007812 599.136719 600.230469 602.507812 C 599.839844 604.710938 600.878906 606.914062 603.082031 607.5625 C 605.15625 608.082031 607.75 606.914062 608.140625 604.710938 C 608.789062 601.34375 609.433594 597.972656 610.082031 594.601562 C 610.730469 592.398438 609.695312 590.195312 607.359375 589.546875 Z M 586.613281 598.878906 C 584.148438 599.007812 582.722656 600.695312 582.464844 603.027344 C 582.203125 605.230469 582.074219 607.5625 581.816406 609.769531 C 581.554688 611.972656 583.890625 614.046875 585.964844 613.914062 C 588.429688 613.785156 589.855469 612.101562 590.113281 609.769531 L 590.761719 603.027344 C 591.023438 600.824219 588.6875 598.75 586.613281 598.878906 Z M 586.613281 598.878906 C 584.148438 599.007812 582.722656 600.695312 582.464844 603.027344 C 582.203125 605.230469 582.074219 607.5625 581.816406 609.769531 C 581.554688 611.972656 583.890625 614.046875 585.964844 613.914062 C 588.429688 613.785156 589.855469 612.101562 590.113281 609.769531 L 590.761719 603.027344 C 591.023438 600.824219 588.6875 598.75 586.613281 598.878906 Z M 607.359375 589.546875 C 605.285156 589.027344 602.691406 590.195312 602.304688 592.398438 C 601.65625 595.769531 601.007812 599.136719 600.230469 602.507812 C 599.839844 604.710938 600.878906 606.914062 603.082031 607.5625 C 605.15625 608.082031 607.75 606.914062 608.140625 604.710938 C 608.789062 601.34375 609.433594 597.972656 610.082031 594.601562 C 610.730469 592.398438 609.695312 590.195312 607.359375 589.546875 Z M 620.199219 584.101562 C 618.253906 583.582031 615.53125 584.75 615.140625 586.953125 C 614.492188 590.582031 613.714844 594.210938 613.066406 597.84375 C 612.675781 600.046875 613.714844 602.25 615.917969 602.898438 C 617.863281 603.417969 620.585938 602.25 620.976562 600.046875 C 621.625 596.417969 622.273438 592.785156 623.050781 589.15625 C 623.570312 587.082031 622.53125 584.75 620.199219 584.101562 Z M 620.199219 584.101562 C 618.253906 583.582031 615.53125 584.75 615.140625 586.953125 C 614.492188 590.582031 613.714844 594.210938 613.066406 597.84375 C 612.675781 600.046875 613.714844 602.25 615.917969 602.898438 C 617.863281 603.417969 620.585938 602.25 620.976562 600.046875 C 621.625 596.417969 622.273438 592.785156 623.050781 589.15625 C 623.570312 587.082031 622.53125 584.75 620.199219 584.101562 Z M 607.359375 589.546875 C 605.285156 589.027344 602.691406 590.195312 602.304688 592.398438 C 601.65625 595.769531 601.007812 599.136719 600.230469 602.507812 C 599.839844 604.710938 600.878906 606.914062 603.082031 607.5625 C 605.15625 608.082031 607.75 606.914062 608.140625 604.710938 C 608.789062 601.34375 609.433594 597.972656 610.082031 594.601562 C 610.730469 592.398438 609.695312 590.195312 607.359375 589.546875 Z M 586.613281 598.878906 C 584.148438 599.007812 582.722656 600.695312 582.464844 603.027344 C 582.203125 605.230469 582.074219 607.5625 581.816406 609.769531 C 581.554688 611.972656 583.890625 614.046875 585.964844 613.914062 C 588.429688 613.785156 589.855469 612.101562 590.113281 609.769531 L 590.761719 603.027344 C 591.023438 600.824219 588.6875 598.75 586.613281 598.878906 Z M 586.613281 598.878906 C 584.148438 599.007812 582.722656 600.695312 582.464844 603.027344 C 582.203125 605.230469 582.074219 607.5625 581.816406 609.769531 C 581.554688 611.972656 583.890625 614.046875 585.964844 613.914062 C 588.429688 613.785156 589.855469 612.101562 590.113281 609.769531 L 590.761719 603.027344 C 591.023438 600.824219 588.6875 598.75 586.613281 598.878906 Z M 607.359375 589.546875 C 605.285156 589.027344 602.691406 590.195312 602.304688 592.398438 C 601.65625 595.769531 601.007812 599.136719 600.230469 602.507812 C 599.839844 604.710938 600.878906 606.914062 603.082031 607.5625 C 605.15625 608.082031 607.75 606.914062 608.140625 604.710938 C 608.789062 601.34375 609.433594 597.972656 610.082031 594.601562 C 610.730469 592.398438 609.695312 590.195312 607.359375 589.546875 Z M 620.199219 584.101562 C 618.253906 583.582031 615.53125 584.75 615.140625 586.953125 C 614.492188 590.582031 613.714844 594.210938 613.066406 597.84375 C 612.675781 600.046875 613.714844 602.25 615.917969 602.898438 C 617.863281 603.417969 620.585938 602.25 620.976562 600.046875 C 621.625 596.417969 622.273438 592.785156 623.050781 589.15625 C 623.570312 587.082031 622.53125 584.75 620.199219 584.101562 Z M 620.199219 584.101562 C 618.253906 583.582031 615.53125 584.75 615.140625 586.953125 C 614.492188 590.582031 613.714844 594.210938 613.066406 597.84375 C 612.675781 600.046875 613.714844 602.25 615.917969 602.898438 C 617.863281 603.417969 620.585938 602.25 620.976562 600.046875 C 621.625 596.417969 622.273438 592.785156 623.050781 589.15625 C 623.570312 587.082031 622.53125 584.75 620.199219 584.101562 Z M 607.359375 589.546875 C 605.285156 589.027344 602.691406 590.195312 602.304688 592.398438 C 601.65625 595.769531 601.007812 599.136719 600.230469 602.507812 C 599.839844 604.710938 600.878906 606.914062 603.082031 607.5625 C 605.15625 608.082031 607.75 606.914062 608.140625 604.710938 C 608.789062 601.34375 609.433594 597.972656 610.082031 594.601562 C 610.730469 592.398438 609.695312 590.195312 607.359375 589.546875 Z M 586.613281 598.878906 C 584.148438 599.007812 582.722656 600.695312 582.464844 603.027344 C 582.203125 605.230469 582.074219 607.5625 581.816406 609.769531 C 581.554688 611.972656 583.890625 614.046875 585.964844 613.914062 C 588.429688 613.785156 589.855469 612.101562 590.113281 609.769531 L 590.761719 603.027344 C 591.023438 600.824219 588.6875 598.75 586.613281 598.878906 Z M 643.410156 332.890625 L 643.410156 56.535156 C 643.410156 56.144531 643.410156 55.753906 643.28125 55.496094 C 641.59375 46.8125 622.53125 46.164062 616.4375 45.257812 C 590.890625 41.625 564.957031 40.460938 539.152344 39.550781 C 477.296875 37.480469 413.886719 36.699219 352.421875 44.867188 C 345.9375 45.773438 326.230469 46.164062 323.117188 54.460938 C 323.117188 54.589844 323.117188 54.589844 322.988281 54.71875 C 322.726562 55.238281 322.597656 55.886719 322.597656 56.535156 C 322.726562 77.53125 322.988281 98.53125 323.117188 119.402344 C 290.699219 118.105469 257.761719 127.566406 237.273438 154.398438 C 218.601562 179.417969 213.800781 212.210938 211.46875 242.671875 C 208.355469 283.503906 207.578125 325.503906 209.523438 366.464844 C 211.078125 398.09375 216.394531 430.757812 235.199219 457.070312 C 256.59375 487.144531 290.570312 503.996094 326.359375 510.347656 C 326.617188 540.03125 326.878906 569.84375 327.007812 599.527344 C 327.136719 611.710938 326.097656 623.898438 334.269531 634.265625 C 343.085938 645.414062 359.425781 652.804688 371.746094 658.894531 C 390.417969 668.359375 410.257812 675.617188 430.746094 680.152344 C 479.890625 691.300781 531.761719 687.023438 578.445312 668.226562 C 610.082031 655.523438 642.242188 638.804688 643.410156 600.695312 C 646.132812 511.640625 643.410156 421.941406 643.410156 332.890625 Z M 336.601562 56.015625 C 343.996094 53.941406 351.773438 53.164062 359.425781 52.253906 C 409.089844 46.550781 459.53125 46.292969 509.457031 47.070312 C 537.46875 47.460938 565.605469 48.367188 593.484375 50.960938 C 597.894531 51.347656 624.738281 53.164062 632.90625 56.015625 C 630.574219 56.664062 627.332031 57.570312 625.902344 57.828125 C 617.476562 59.644531 608.917969 60.550781 600.359375 61.460938 C 577.664062 63.792969 554.84375 64.699219 532.019531 65.476562 C 478.984375 67.03125 425.558594 66.773438 372.652344 62.105469 C 364.09375 61.328125 355.40625 60.550781 346.847656 59.125 C 344.125 58.605469 339.972656 57.050781 336.34375 56.144531 C 336.472656 56.015625 336.601562 56.015625 336.601562 56.015625 Z M 340.105469 66.253906 C 362.539062 70.664062 385.878906 71.699219 408.570312 72.734375 C 443.84375 74.421875 479.242188 74.679688 514.515625 74.164062 C 546.285156 73.644531 578.183594 72.605469 609.695312 68.71875 C 614.363281 68.199219 626.683594 67.8125 635.109375 64.828125 L 635.109375 547.417969 C 544.859375 606.136719 427.246094 608.339844 334.917969 552.992188 C 334.269531 473.664062 333.621094 394.203125 333.101562 315.003906 C 332.582031 247.597656 332.0625 180.324219 331.546875 113.050781 C 331.546875 104.234375 331.414062 95.421875 331.285156 86.734375 C 331.285156 79.21875 331.15625 71.828125 331.15625 64.3125 C 334.527344 65.21875 338.027344 65.867188 340.105469 66.253906 Z M 632.515625 616.898438 C 624.996094 638.804688 602.304688 649.042969 582.464844 657.726562 C 557.566406 668.617188 530.851562 675.355469 503.75 677.429688 C 456.550781 680.929688 409.089844 670.171875 367.722656 647.488281 C 353.847656 639.839844 336.734375 631.804688 335.4375 614.046875 C 335.304688 611.324219 335.4375 608.601562 335.4375 606.007812 C 335.304688 591.621094 335.175781 577.230469 335.175781 562.84375 C 427.894531 616.25 544.597656 614.175781 635.371094 557.398438 L 635.371094 583.84375 C 635.109375 594.730469 636.148438 606.398438 632.515625 616.898438 Z M 217.433594 319.28125 C 217.953125 276.894531 215.746094 231.136719 228.714844 190.304688 C 242.589844 146.621094 279.15625 126.140625 323.375 127.828125 C 323.503906 142.472656 323.636719 156.992188 323.636719 171.640625 C 255.039062 166.714844 266.839844 264.449219 267.226562 309.558594 C 267.746094 361.539062 260.226562 440.609375 325.839844 452.273438 C 325.96875 468.867188 326.097656 485.457031 326.230469 501.921875 C 288.363281 494.660156 252.703125 474.957031 234.289062 439.703125 C 215.230469 403.40625 216.785156 359.074219 217.433594 319.28125 Z M 275.527344 314.613281 C 275.265625 284.410156 273.582031 253.042969 278.121094 223.101562 C 282.140625 196.65625 294.589844 177.214844 323.765625 179.804688 C 324.023438 214.675781 324.285156 249.542969 324.542969 284.410156 C 324.933594 337.6875 325.449219 390.832031 325.839844 444.109375 C 268.394531 433.21875 275.914062 359.59375 275.527344 314.613281 Z M 620.199219 584.101562 C 618.253906 583.582031 615.53125 584.75 615.140625 586.953125 C 614.492188 590.582031 613.714844 594.210938 613.066406 597.84375 C 612.675781 600.046875 613.714844 602.25 615.917969 602.898438 C 617.863281 603.417969 620.585938 602.25 620.976562 600.046875 C 621.625 596.417969 622.273438 592.785156 623.050781 589.15625 C 623.570312 587.082031 622.53125 584.75 620.199219 584.101562 Z M 607.359375 589.546875 C 605.285156 589.027344 602.691406 590.195312 602.304688 592.398438 C 601.65625 595.769531 601.007812 599.136719 600.230469 602.507812 C 599.839844 604.710938 600.878906 606.914062 603.082031 607.5625 C 605.15625 608.082031 607.75 606.914062 608.140625 604.710938 C 608.789062 601.34375 609.433594 597.972656 610.082031 594.601562 C 610.730469 592.398438 609.695312 590.195312 607.359375 589.546875 Z M 586.613281 598.878906 C 584.148438 599.007812 582.722656 600.695312 582.464844 603.027344 C 582.203125 605.230469 582.074219 607.5625 581.816406 609.769531 C 581.554688 611.972656 583.890625 614.046875 585.964844 613.914062 C 588.429688 613.785156 589.855469 612.101562 590.113281 609.769531 L 590.761719 603.027344 C 591.023438 600.824219 588.6875 598.75 586.613281 598.878906 Z M 586.613281 598.878906 C 584.148438 599.007812 582.722656 600.695312 582.464844 603.027344 C 582.203125 605.230469 582.074219 607.5625 581.816406 609.769531 C 581.554688 611.972656 583.890625 614.046875 585.964844 613.914062 C 588.429688 613.785156 589.855469 612.101562 590.113281 609.769531 L 590.761719 603.027344 C 591.023438 600.824219 588.6875 598.75 586.613281 598.878906 Z M 607.359375 589.546875 C 605.285156 589.027344 602.691406 590.195312 602.304688 592.398438 C 601.65625 595.769531 601.007812 599.136719 600.230469 602.507812 C 599.839844 604.710938 600.878906 606.914062 603.082031 607.5625 C 605.15625 608.082031 607.75 606.914062 608.140625 604.710938 C 608.789062 601.34375 609.433594 597.972656 610.082031 594.601562 C 610.730469 592.398438 609.695312 590.195312 607.359375 589.546875 Z M 620.199219 584.101562 C 618.253906 583.582031 615.53125 584.75 615.140625 586.953125 C 614.492188 590.582031 613.714844 594.210938 613.066406 597.84375 C 612.675781 600.046875 613.714844 602.25 615.917969 602.898438 C 617.863281 603.417969 620.585938 602.25 620.976562 600.046875 C 621.625 596.417969 622.273438 592.785156 623.050781 589.15625 C 623.570312 587.082031 622.53125 584.75 620.199219 584.101562 Z M 620.199219 584.101562 C 618.253906 583.582031 615.53125 584.75 615.140625 586.953125 C 614.492188 590.582031 613.714844 594.210938 613.066406 597.84375 C 612.675781 600.046875 613.714844 602.25 615.917969 602.898438 C 617.863281 603.417969 620.585938 602.25 620.976562 600.046875 C 621.625 596.417969 622.273438 592.785156 623.050781 589.15625 C 623.570312 587.082031 622.53125 584.75 620.199219 584.101562 Z M 607.359375 589.546875 C 605.285156 589.027344 602.691406 590.195312 602.304688 592.398438 C 601.65625 595.769531 601.007812 599.136719 600.230469 602.507812 C 599.839844 604.710938 600.878906 606.914062 603.082031 607.5625 C 605.15625 608.082031 607.75 606.914062 608.140625 604.710938 C 608.789062 601.34375 609.433594 597.972656 610.082031 594.601562 C 610.730469 592.398438 609.695312 590.195312 607.359375 589.546875 Z M 586.613281 598.878906 C 584.148438 599.007812 582.722656 600.695312 582.464844 603.027344 C 582.203125 605.230469 582.074219 607.5625 581.816406 609.769531 C 581.554688 611.972656 583.890625 614.046875 585.964844 613.914062 C 588.429688 613.785156 589.855469 612.101562 590.113281 609.769531 L 590.761719 603.027344 C 591.023438 600.824219 588.6875 598.75 586.613281 598.878906 Z M 586.613281 598.878906 C 584.148438 599.007812 582.722656 600.695312 582.464844 603.027344 C 582.203125 605.230469 582.074219 607.5625 581.816406 609.769531 C 581.554688 611.972656 583.890625 614.046875 585.964844 613.914062 C 588.429688 613.785156 589.855469 612.101562 590.113281 609.769531 L 590.761719 603.027344 C 591.023438 600.824219 588.6875 598.75 586.613281 598.878906 Z M 607.359375 589.546875 C 605.285156 589.027344 602.691406 590.195312 602.304688 592.398438 C 601.65625 595.769531 601.007812 599.136719 600.230469 602.507812 C 599.839844 604.710938 600.878906 606.914062 603.082031 607.5625 C 605.15625 608.082031 607.75 606.914062 608.140625 604.710938 C 608.789062 601.34375 609.433594 597.972656 610.082031 594.601562 C 610.730469 592.398438 609.695312 590.195312 607.359375 589.546875 Z M 620.199219 584.101562 C 618.253906 583.582031 615.53125 584.75 615.140625 586.953125 C 614.492188 590.582031 613.714844 594.210938 613.066406 597.84375 C 612.675781 600.046875 613.714844 602.25 615.917969 602.898438 C 617.863281 603.417969 620.585938 602.25 620.976562 600.046875 C 621.625 596.417969 622.273438 592.785156 623.050781 589.15625 C 623.570312 587.082031 622.53125 584.75 620.199219 584.101562 Z M 620.199219 584.101562 C 618.253906 583.582031 615.53125 584.75 615.140625 586.953125 C 614.492188 590.582031 613.714844 594.210938 613.066406 597.84375 C 612.675781 600.046875 613.714844 602.25 615.917969 602.898438 C 617.863281 603.417969 620.585938 602.25 620.976562 600.046875 C 621.625 596.417969 622.273438 592.785156 623.050781 589.15625 C 623.570312 587.082031 622.53125 584.75 620.199219 584.101562 Z M 607.359375 589.546875 C 605.285156 589.027344 602.691406 590.195312 602.304688 592.398438 C 601.65625 595.769531 601.007812 599.136719 600.230469 602.507812 C 599.839844 604.710938 600.878906 606.914062 603.082031 607.5625 C 605.15625 608.082031 607.75 606.914062 608.140625 604.710938 C 608.789062 601.34375 609.433594 597.972656 610.082031 594.601562 C 610.730469 592.398438 609.695312 590.195312 607.359375 589.546875 Z M 586.613281 598.878906 C 584.148438 599.007812 582.722656 600.695312 582.464844 603.027344 C 582.203125 605.230469 582.074219 607.5625 581.816406 609.769531 C 581.554688 611.972656 583.890625 614.046875 585.964844 613.914062 C 588.429688 613.785156 589.855469 612.101562 590.113281 609.769531 L 590.761719 603.027344 C 591.023438 600.824219 588.6875 598.75 586.613281 598.878906 Z M 586.613281 598.878906 " fill-opacity="1" fill-rule="nonzero"/><path fill="rgb(81.959534%, 73.329163%, 65.098572%)" d="M 268.523438 451.496094 C 268.523438 448.644531 266.058594 446.054688 263.207031 446.054688 L 263.078125 446.054688 C 260.09375 446.183594 257.632812 448.386719 257.632812 451.496094 C 257.632812 452.921875 257.632812 454.347656 257.761719 455.773438 C 258.019531 458.757812 259.835938 461.609375 263.207031 461.609375 C 266.449219 461.609375 268.394531 458.757812 268.652344 455.773438 C 268.652344 454.476562 268.523438 452.921875 268.523438 451.496094 Z M 284.734375 439.3125 C 284.734375 436.589844 282.398438 433.867188 279.546875 433.867188 L 279.289062 433.867188 C 276.433594 433.996094 273.839844 436.203125 273.839844 439.3125 C 273.839844 442.941406 273.453125 446.960938 276.953125 449.292969 C 278.25 450.199219 280.195312 450.199219 281.492188 449.292969 C 285.121094 446.960938 284.734375 443.070312 284.734375 439.3125 Z M 261.78125 424.535156 C 261.78125 421.683594 259.316406 419.089844 256.464844 419.089844 L 256.335938 419.089844 C 253.351562 419.21875 250.890625 421.554688 250.890625 424.535156 C 250.890625 427.257812 250.757812 429.980469 251.019531 432.703125 C 251.277344 435.554688 253.351562 438.144531 256.335938 438.015625 C 259.445312 437.886719 261.523438 435.683594 261.652344 432.703125 C 261.910156 429.851562 261.78125 427.128906 261.78125 424.535156 Z M 253.871094 197.433594 C 250.757812 196.785156 248.164062 198.339844 247.128906 201.324219 C 246.480469 203.265625 245.441406 205.339844 245.441406 207.414062 C 245.570312 209.488281 246.738281 211.304688 248.683594 212.210938 C 250.5 212.988281 252.964844 212.730469 254.390625 211.175781 C 256.207031 209.230469 256.855469 206.636719 257.632812 204.304688 C 258.539062 201.582031 256.59375 198.082031 253.871094 197.433594 Z M 276.5625 160.363281 C 274.359375 159.195312 270.730469 159.585938 269.5625 162.175781 C 268.265625 165.027344 266.707031 167.878906 266.320312 170.992188 C 266.058594 173.066406 266.449219 175.007812 268.394531 176.175781 C 269.949219 177.082031 272.671875 176.953125 273.96875 175.527344 C 275.007812 174.230469 275.914062 172.933594 276.695312 171.378906 C 277.34375 170.082031 277.859375 168.65625 278.507812 167.363281 C 279.417969 164.898438 279.15625 161.660156 276.5625 160.363281 Z M 252.445312 171.769531 C 249.980469 170.472656 246.21875 170.992188 244.921875 173.714844 C 244.015625 175.65625 242.847656 177.730469 242.332031 179.804688 C 241.683594 182.398438 242.980469 185.121094 245.441406 186.15625 C 248.035156 187.195312 250.628906 186.15625 252.183594 183.953125 C 253.222656 182.65625 253.742188 180.84375 254.390625 179.285156 C 255.558594 176.695312 255.167969 173.324219 252.445312 171.769531 Z M 284.734375 439.3125 C 284.734375 436.589844 282.398438 433.867188 279.546875 433.867188 L 279.289062 433.867188 C 276.433594 433.996094 273.839844 436.203125 273.839844 439.3125 C 273.839844 442.941406 273.453125 446.960938 276.953125 449.292969 C 278.25 450.199219 280.195312 450.199219 281.492188 449.292969 C 285.121094 446.960938 284.734375 443.070312 284.734375 439.3125 Z M 276.5625 160.363281 C 274.359375 159.195312 270.730469 159.585938 269.5625 162.175781 C 268.265625 165.027344 266.707031 167.878906 266.320312 170.992188 C 266.058594 173.066406 266.449219 175.007812 268.394531 176.175781 C 269.949219 177.082031 272.671875 176.953125 273.96875 175.527344 C 275.007812 174.230469 275.914062 172.933594 276.695312 171.378906 C 277.34375 170.082031 277.859375 168.65625 278.507812 167.363281 C 279.417969 164.898438 279.15625 161.660156 276.5625 160.363281 Z M 268.523438 451.496094 C 268.523438 448.644531 266.058594 446.054688 263.207031 446.054688 L 263.078125 446.054688 C 260.09375 446.183594 257.632812 448.386719 257.632812 451.496094 C 257.632812 452.921875 257.632812 454.347656 257.761719 455.773438 C 258.019531 458.757812 259.835938 461.609375 263.207031 461.609375 C 266.449219 461.609375 268.394531 458.757812 268.652344 455.773438 C 268.652344 454.476562 268.523438 452.921875 268.523438 451.496094 Z M 261.78125 424.535156 C 261.78125 421.683594 259.316406 419.089844 256.464844 419.089844 L 256.335938 419.089844 C 253.351562 419.21875 250.890625 421.554688 250.890625 424.535156 C 250.890625 427.257812 250.757812 429.980469 251.019531 432.703125 C 251.277344 435.554688 253.351562 438.144531 256.335938 438.015625 C 259.445312 437.886719 261.523438 435.683594 261.652344 432.703125 C 261.910156 429.851562 261.78125 427.128906 261.78125 424.535156 Z M 253.871094 197.433594 C 250.757812 196.785156 248.164062 198.339844 247.128906 201.324219 C 246.480469 203.265625 245.441406 205.339844 245.441406 207.414062 C 245.570312 209.488281 246.738281 211.304688 248.683594 212.210938 C 250.5 212.988281 252.964844 212.730469 254.390625 211.175781 C 256.207031 209.230469 256.855469 206.636719 257.632812 204.304688 C 258.539062 201.582031 256.59375 198.082031 253.871094 197.433594 Z M 252.445312 171.769531 C 249.980469 170.472656 246.21875 170.992188 244.921875 173.714844 C 244.015625 175.65625 242.847656 177.730469 242.332031 179.804688 C 241.683594 182.398438 242.980469 185.121094 245.441406 186.15625 C 248.035156 187.195312 250.628906 186.15625 252.183594 183.953125 C 253.222656 182.65625 253.742188 180.84375 254.390625 179.285156 C 255.558594 176.695312 255.167969 173.324219 252.445312 171.769531 Z M 252.445312 171.769531 C 249.980469 170.472656 246.21875 170.992188 244.921875 173.714844 C 244.015625 175.65625 242.847656 177.730469 242.332031 179.804688 C 241.683594 182.398438 242.980469 185.121094 245.441406 186.15625 C 248.035156 187.195312 250.628906 186.15625 252.183594 183.953125 C 253.222656 182.65625 253.742188 180.84375 254.390625 179.285156 C 255.558594 176.695312 255.167969 173.324219 252.445312 171.769531 Z M 253.871094 197.433594 C 250.757812 196.785156 248.164062 198.339844 247.128906 201.324219 C 246.480469 203.265625 245.441406 205.339844 245.441406 207.414062 C 245.570312 209.488281 246.738281 211.304688 248.683594 212.210938 C 250.5 212.988281 252.964844 212.730469 254.390625 211.175781 C 256.207031 209.230469 256.855469 206.636719 257.632812 204.304688 C 258.539062 201.582031 256.59375 198.082031 253.871094 197.433594 Z M 261.78125 424.535156 C 261.78125 421.683594 259.316406 419.089844 256.464844 419.089844 L 256.335938 419.089844 C 253.351562 419.21875 250.890625 421.554688 250.890625 424.535156 C 250.890625 427.257812 250.757812 429.980469 251.019531 432.703125 C 251.277344 435.554688 253.351562 438.144531 256.335938 438.015625 C 259.445312 437.886719 261.523438 435.683594 261.652344 432.703125 C 261.910156 429.851562 261.78125 427.128906 261.78125 424.535156 Z M 268.523438 451.496094 C 268.523438 448.644531 266.058594 446.054688 263.207031 446.054688 L 263.078125 446.054688 C 260.09375 446.183594 257.632812 448.386719 257.632812 451.496094 C 257.632812 452.921875 257.632812 454.347656 257.761719 455.773438 C 258.019531 458.757812 259.835938 461.609375 263.207031 461.609375 C 266.449219 461.609375 268.394531 458.757812 268.652344 455.773438 C 268.652344 454.476562 268.523438 452.921875 268.523438 451.496094 Z M 276.5625 160.363281 C 274.359375 159.195312 270.730469 159.585938 269.5625 162.175781 C 268.265625 165.027344 266.707031 167.878906 266.320312 170.992188 C 266.058594 173.066406 266.449219 175.007812 268.394531 176.175781 C 269.949219 177.082031 272.671875 176.953125 273.96875 175.527344 C 275.007812 174.230469 275.914062 172.933594 276.695312 171.378906 C 277.34375 170.082031 277.859375 168.65625 278.507812 167.363281 C 279.417969 164.898438 279.15625 161.660156 276.5625 160.363281 Z M 284.734375 439.3125 C 284.734375 436.589844 282.398438 433.867188 279.546875 433.867188 L 279.289062 433.867188 C 276.433594 433.996094 273.839844 436.203125 273.839844 439.3125 C 273.839844 442.941406 273.453125 446.960938 276.953125 449.292969 C 278.25 450.199219 280.195312 450.199219 281.492188 449.292969 C 285.121094 446.960938 284.734375 443.070312 284.734375 439.3125 Z M 284.734375 439.3125 C 284.734375 436.589844 282.398438 433.867188 279.546875 433.867188 L 279.289062 433.867188 C 276.433594 433.996094 273.839844 436.203125 273.839844 439.3125 C 273.839844 442.941406 273.453125 446.960938 276.953125 449.292969 C 278.25 450.199219 280.195312 450.199219 281.492188 449.292969 C 285.121094 446.960938 284.734375 443.070312 284.734375 439.3125 Z M 276.5625 160.363281 C 274.359375 159.195312 270.730469 159.585938 269.5625 162.175781 C 268.265625 165.027344 266.707031 167.878906 266.320312 170.992188 C 266.058594 173.066406 266.449219 175.007812 268.394531 176.175781 C 269.949219 177.082031 272.671875 176.953125 273.96875 175.527344 C 275.007812 174.230469 275.914062 172.933594 276.695312 171.378906 C 277.34375 170.082031 277.859375 168.65625 278.507812 167.363281 C 279.417969 164.898438 279.15625 161.660156 276.5625 160.363281 Z M 268.523438 451.496094 C 268.523438 448.644531 266.058594 446.054688 263.207031 446.054688 L 263.078125 446.054688 C 260.09375 446.183594 257.632812 448.386719 257.632812 451.496094 C 257.632812 452.921875 257.632812 454.347656 257.761719 455.773438 C 258.019531 458.757812 259.835938 461.609375 263.207031 461.609375 C 266.449219 461.609375 268.394531 458.757812 268.652344 455.773438 C 268.652344 454.476562 268.523438 452.921875 268.523438 451.496094 Z M 261.78125 424.535156 C 261.78125 421.683594 259.316406 419.089844 256.464844 419.089844 L 256.335938 419.089844 C 253.351562 419.21875 250.890625 421.554688 250.890625 424.535156 C 250.890625 427.257812 250.757812 429.980469 251.019531 432.703125 C 251.277344 435.554688 253.351562 438.144531 256.335938 438.015625 C 259.445312 437.886719 261.523438 435.683594 261.652344 432.703125 C 261.910156 429.851562 261.78125 427.128906 261.78125 424.535156 Z M 253.871094 197.433594 C 250.757812 196.785156 248.164062 198.339844 247.128906 201.324219 C 246.480469 203.265625 245.441406 205.339844 245.441406 207.414062 C 245.570312 209.488281 246.738281 211.304688 248.683594 212.210938 C 250.5 212.988281 252.964844 212.730469 254.390625 211.175781 C 256.207031 209.230469 256.855469 206.636719 257.632812 204.304688 C 258.539062 201.582031 256.59375 198.082031 253.871094 197.433594 Z M 252.445312 171.769531 C 249.980469 170.472656 246.21875 170.992188 244.921875 173.714844 C 244.015625 175.65625 242.847656 177.730469 242.332031 179.804688 C 241.683594 182.398438 242.980469 185.121094 245.441406 186.15625 C 248.035156 187.195312 250.628906 186.15625 252.183594 183.953125 C 253.222656 182.65625 253.742188 180.84375 254.390625 179.285156 C 255.558594 176.695312 255.167969 173.324219 252.445312 171.769531 Z M 252.445312 171.769531 C 249.980469 170.472656 246.21875 170.992188 244.921875 173.714844 C 244.015625 175.65625 242.847656 177.730469 242.332031 179.804688 C 241.683594 182.398438 242.980469 185.121094 245.441406 186.15625 C 248.035156 187.195312 250.628906 186.15625 252.183594 183.953125 C 253.222656 182.65625 253.742188 180.84375 254.390625 179.285156 C 255.558594 176.695312 255.167969 173.324219 252.445312 171.769531 Z M 253.871094 197.433594 C 250.757812 196.785156 248.164062 198.339844 247.128906 201.324219 C 246.480469 203.265625 245.441406 205.339844 245.441406 207.414062 C 245.570312 209.488281 246.738281 211.304688 248.683594 212.210938 C 250.5 212.988281 252.964844 212.730469 254.390625 211.175781 C 256.207031 209.230469 256.855469 206.636719 257.632812 204.304688 C 258.539062 201.582031 256.59375 198.082031 253.871094 197.433594 Z M 261.78125 424.535156 C 261.78125 421.683594 259.316406 419.089844 256.464844 419.089844 L 256.335938 419.089844 C 253.351562 419.21875 250.890625 421.554688 250.890625 424.535156 C 250.890625 427.257812 250.757812 429.980469 251.019531 432.703125 C 251.277344 435.554688 253.351562 438.144531 256.335938 438.015625 C 259.445312 437.886719 261.523438 435.683594 261.652344 432.703125 C 261.910156 429.851562 261.78125 427.128906 261.78125 424.535156 Z M 268.523438 451.496094 C 268.523438 448.644531 266.058594 446.054688 263.207031 446.054688 L 263.078125 446.054688 C 260.09375 446.183594 257.632812 448.386719 257.632812 451.496094 C 257.632812 452.921875 257.632812 454.347656 257.761719 455.773438 C 258.019531 458.757812 259.835938 461.609375 263.207031 461.609375 C 266.449219 461.609375 268.394531 458.757812 268.652344 455.773438 C 268.652344 454.476562 268.523438 452.921875 268.523438 451.496094 Z M 276.5625 160.363281 C 274.359375 159.195312 270.730469 159.585938 269.5625 162.175781 C 268.265625 165.027344 266.707031 167.878906 266.320312 170.992188 C 266.058594 173.066406 266.449219 175.007812 268.394531 176.175781 C 269.949219 177.082031 272.671875 176.953125 273.96875 175.527344 C 275.007812 174.230469 275.914062 172.933594 276.695312 171.378906 C 277.34375 170.082031 277.859375 168.65625 278.507812 167.363281 C 279.417969 164.898438 279.15625 161.660156 276.5625 160.363281 Z M 284.734375 439.3125 C 284.734375 436.589844 282.398438 433.867188 279.546875 433.867188 L 279.289062 433.867188 C 276.433594 433.996094 273.839844 436.203125 273.839844 439.3125 C 273.839844 442.941406 273.453125 446.960938 276.953125 449.292969 C 278.25 450.199219 280.195312 450.199219 281.492188 449.292969 C 285.121094 446.960938 284.734375 443.070312 284.734375 439.3125 Z M 284.734375 439.3125 C 284.734375 436.589844 282.398438 433.867188 279.546875 433.867188 L 279.289062 433.867188 C 276.433594 433.996094 273.839844 436.203125 273.839844 439.3125 C 273.839844 442.941406 273.453125 446.960938 276.953125 449.292969 C 278.25 450.199219 280.195312 450.199219 281.492188 449.292969 C 285.121094 446.960938 284.734375 443.070312 284.734375 439.3125 Z M 278.378906 167.230469 C 279.417969 164.769531 279.15625 161.660156 276.5625 160.230469 C 274.359375 159.066406 270.730469 159.453125 269.5625 162.046875 C 268.265625 164.898438 266.707031 167.75 266.320312 170.863281 C 266.058594 172.933594 266.449219 174.878906 268.394531 176.046875 C 269.949219 176.953125 272.671875 176.824219 273.96875 175.398438 C 275.007812 174.101562 275.914062 172.804688 276.695312 171.25 C 277.210938 169.953125 277.730469 168.65625 278.378906 167.230469 Z M 263.335938 446.054688 L 263.078125 446.054688 C 260.09375 446.183594 257.632812 448.386719 257.632812 451.496094 C 257.632812 452.921875 257.632812 454.347656 257.761719 455.773438 C 258.019531 458.757812 259.835938 461.609375 263.207031 461.609375 C 266.449219 461.609375 268.394531 458.757812 268.652344 455.773438 C 268.785156 454.347656 268.652344 452.921875 268.652344 451.496094 C 268.523438 448.773438 266.191406 446.054688 263.335938 446.054688 Z M 261.652344 432.570312 C 261.78125 429.851562 261.78125 427.128906 261.78125 424.40625 C 261.78125 421.554688 259.316406 418.960938 256.464844 418.960938 L 256.335938 418.960938 C 253.351562 419.089844 250.890625 421.425781 250.890625 424.40625 C 250.890625 427.128906 250.757812 429.851562 251.019531 432.570312 C 251.277344 435.421875 253.351562 438.015625 256.335938 437.886719 C 259.445312 437.757812 261.523438 435.554688 261.652344 432.570312 Z M 254.390625 211.175781 C 256.207031 209.230469 256.855469 206.636719 257.632812 204.304688 C 258.539062 201.582031 256.59375 198.210938 253.871094 197.5625 C 250.757812 196.914062 248.164062 198.472656 247.128906 201.453125 C 246.480469 203.398438 245.441406 205.472656 245.441406 207.546875 C 245.570312 209.617188 246.738281 211.433594 248.683594 212.339844 C 250.5 212.988281 252.964844 212.601562 254.390625 211.175781 Z M 252.183594 183.953125 C 253.222656 182.65625 253.742188 180.84375 254.390625 179.285156 C 255.558594 176.695312 255.296875 173.195312 252.445312 171.769531 C 249.980469 170.472656 246.21875 170.992188 244.921875 173.714844 C 244.015625 175.65625 242.847656 177.730469 242.332031 179.804688 C 241.683594 182.398438 242.980469 185.121094 245.441406 186.15625 C 248.035156 187.195312 250.5 186.15625 252.183594 183.953125 Z M 277.082031 449.292969 C 278.378906 450.199219 280.324219 450.199219 281.621094 449.292969 C 285.121094 446.960938 284.734375 443.070312 284.734375 439.3125 C 284.734375 436.589844 282.398438 433.867188 279.546875 433.867188 L 279.289062 433.867188 C 276.433594 433.996094 273.839844 436.203125 273.839844 439.3125 C 273.96875 443.070312 273.582031 446.960938 277.082031 449.292969 Z M 268.394531 176.175781 C 269.949219 177.082031 272.671875 176.953125 273.96875 175.527344 C 275.007812 174.230469 275.914062 172.933594 276.695312 171.378906 C 277.34375 170.082031 277.859375 168.65625 278.507812 167.363281 C 279.546875 164.898438 279.289062 161.789062 276.695312 160.363281 C 274.488281 159.195312 270.859375 159.585938 269.691406 162.175781 C 268.394531 165.027344 266.839844 167.878906 266.449219 170.992188 C 266.058594 173.066406 266.449219 175.007812 268.394531 176.175781 Z M 257.632812 451.496094 C 257.632812 452.921875 257.632812 454.347656 257.761719 455.773438 C 258.019531 458.757812 259.835938 461.609375 263.207031 461.609375 C 266.449219 461.609375 268.394531 458.757812 268.652344 455.773438 C 268.785156 454.347656 268.652344 452.921875 268.652344 451.496094 C 268.652344 448.644531 266.191406 446.054688 263.335938 446.054688 L 263.078125 446.054688 C 260.09375 446.183594 257.632812 448.515625 257.632812 451.496094 Z M 256.335938 418.960938 C 253.351562 419.089844 250.890625 421.425781 250.890625 424.40625 C 250.890625 427.128906 250.757812 429.851562 251.019531 432.570312 C 251.277344 435.421875 253.351562 438.015625 256.335938 437.886719 C 259.445312 437.757812 261.523438 435.554688 261.652344 432.570312 C 261.78125 429.851562 261.78125 427.128906 261.78125 424.40625 C 261.78125 421.554688 259.316406 418.960938 256.335938 418.960938 Z M 247.128906 201.324219 C 246.480469 203.265625 245.441406 205.339844 245.441406 207.414062 C 245.570312 209.488281 246.738281 211.304688 248.683594 212.210938 C 250.5 212.988281 252.964844 212.730469 254.390625 211.175781 C 256.207031 209.230469 256.855469 206.636719 257.632812 204.304688 C 258.539062 201.582031 256.59375 198.210938 253.871094 197.5625 C 250.757812 196.785156 248.164062 198.472656 247.128906 201.324219 Z M 245.441406 186.15625 C 248.035156 187.195312 250.628906 186.15625 252.183594 183.953125 C 253.222656 182.65625 253.742188 180.84375 254.390625 179.285156 C 255.558594 176.695312 255.296875 173.195312 252.445312 171.769531 C 249.980469 170.472656 246.21875 170.992188 244.921875 173.714844 C 244.015625 175.65625 242.847656 177.730469 242.332031 179.804688 C 241.683594 182.398438 242.847656 185.121094 245.441406 186.15625 Z M 252.445312 171.769531 C 249.980469 170.472656 246.21875 170.992188 244.921875 173.714844 C 244.015625 175.65625 242.847656 177.730469 242.332031 179.804688 C 241.683594 182.398438 242.980469 185.121094 245.441406 186.15625 C 248.035156 187.195312 250.628906 186.15625 252.183594 183.953125 C 253.222656 182.65625 253.742188 180.84375 254.390625 179.285156 C 255.558594 176.695312 255.167969 173.324219 252.445312 171.769531 Z M 253.871094 197.433594 C 250.757812 196.785156 248.164062 198.339844 247.128906 201.324219 C 246.480469 203.265625 245.441406 205.339844 245.441406 207.414062 C 245.570312 209.488281 246.738281 211.304688 248.683594 212.210938 C 250.5 212.988281 252.964844 212.730469 254.390625 211.175781 C 256.207031 209.230469 256.855469 206.636719 257.632812 204.304688 C 258.539062 201.582031 256.59375 198.082031 253.871094 197.433594 Z M 261.78125 424.535156 C 261.78125 421.683594 259.316406 419.089844 256.464844 419.089844 L 256.335938 419.089844 C 253.351562 419.21875 250.890625 421.554688 250.890625 424.535156 C 250.890625 427.257812 250.757812 429.980469 251.019531 432.703125 C 251.277344 435.554688 253.351562 438.144531 256.335938 438.015625 C 259.445312 437.886719 261.523438 435.683594 261.652344 432.703125 C 261.910156 429.851562 261.78125 427.128906 261.78125 424.535156 Z M 268.523438 451.496094 C 268.523438 448.644531 266.058594 446.054688 263.207031 446.054688 L 263.078125 446.054688 C 260.09375 446.183594 257.632812 448.386719 257.632812 451.496094 C 257.632812 452.921875 257.632812 454.347656 257.761719 455.773438 C 258.019531 458.757812 259.835938 461.609375 263.207031 461.609375 C 266.449219 461.609375 268.394531 458.757812 268.652344 455.773438 C 268.652344 454.476562 268.523438 452.921875 268.523438 451.496094 Z M 276.5625 160.363281 C 274.359375 159.195312 270.730469 159.585938 269.5625 162.175781 C 268.265625 165.027344 266.707031 167.878906 266.320312 170.992188 C 266.058594 173.066406 266.449219 175.007812 268.394531 176.175781 C 269.949219 177.082031 272.671875 176.953125 273.96875 175.527344 C 275.007812 174.230469 275.914062 172.933594 276.695312 171.378906 C 277.34375 170.082031 277.859375 168.65625 278.507812 167.363281 C 279.417969 164.898438 279.15625 161.660156 276.5625 160.363281 Z M 284.734375 439.3125 C 284.734375 436.589844 282.398438 433.867188 279.546875 433.867188 L 279.289062 433.867188 C 276.433594 433.996094 273.839844 436.203125 273.839844 439.3125 C 273.839844 442.941406 273.453125 446.960938 276.953125 449.292969 C 278.25 450.199219 280.195312 450.199219 281.492188 449.292969 C 285.121094 446.960938 284.734375 443.070312 284.734375 439.3125 Z M 284.734375 439.3125 " fill-opacity="1" fill-rule="nonzero"/></svg>